<svg xmlns="http://www.w3.org/2000/svg" xmlns:xlink="http://www.w3.org/1999/xlink" width="430" zoomAndPan="magnify" viewBox="0 0 323.03998 71.04" height="85" preserveAspectRatio="xMidYMid meet" version="1.0"><defs><g></g><clipPath id="3c37b173f8"><path d="M 1.679688 0 L 319.878906 0 L 319.878906 62.898438 L 1.679688 62.898438 Z M 1.679688 0" clip-rule="nonzero"></path></clipPath><clipPath id="b22f114e2a"><path d="M 74 0 L 318.464844 0 L 318.464844 62.898438 L 74 62.898438 Z M 74 0" clip-rule="nonzero"></path></clipPath><clipPath id="4a7197e5e3"><rect x="0" width="245" y="0" height="63"></rect></clipPath><clipPath id="c310a3b73a"><path d="M 0.679688 56.910156 L 62.921875 56.910156 L 62.921875 62.570312 L 0.679688 62.570312 Z M 0.679688 56.910156" clip-rule="nonzero"></path></clipPath><clipPath id="01b5e73766"><path d="M 0.679688 0.910156 L 62.921875 0.910156 L 62.921875 6.570312 L 0.679688 6.570312 Z M 0.679688 0.910156" clip-rule="nonzero"></path></clipPath><clipPath id="0f4fa8ffe2"><rect x="0" width="63" y="0" height="7"></rect></clipPath><clipPath id="eef679bd18"><path d="M 0.679688 0.328125 L 62.921875 0.328125 L 62.921875 5.988281 L 0.679688 5.988281 Z M 0.679688 0.328125" clip-rule="nonzero"></path></clipPath><clipPath id="da2b8a5ba2"><path d="M 0.679688 0.328125 L 62.921875 0.328125 L 62.921875 5.988281 L 0.679688 5.988281 Z M 0.679688 0.328125" clip-rule="nonzero"></path></clipPath><clipPath id="983d632c1c"><rect x="0" width="63" y="0" height="6"></rect></clipPath><clipPath id="ef433cf04b"><path d="M 0.679688 0.328125 L 6.339844 0.328125 L 6.339844 62.570312 L 0.679688 62.570312 Z M 0.679688 0.328125" clip-rule="nonzero"></path></clipPath><clipPath id="7699de034b"><path d="M 0.679688 0.328125 L 6.339844 0.328125 L 6.339844 62.570312 L 0.679688 62.570312 Z M 0.679688 0.328125" clip-rule="nonzero"></path></clipPath><clipPath id="bc1c905700"><rect x="0" width="7" y="0" height="63"></rect></clipPath><clipPath id="27eeb374ae"><path d="M 57.261719 0.328125 L 62.921875 0.328125 L 62.921875 62.570312 L 57.261719 62.570312 Z M 57.261719 0.328125" clip-rule="nonzero"></path></clipPath><clipPath id="e07d53c1f1"><path d="M 0.261719 0.328125 L 5.921875 0.328125 L 5.921875 62.570312 L 0.261719 62.570312 Z M 0.261719 0.328125" clip-rule="nonzero"></path></clipPath><clipPath id="2e99f834fa"><rect x="0" width="6" y="0" height="63"></rect></clipPath><clipPath id="8ca1e9bd57"><path d="M 45.945312 11.644531 L 51.605469 11.644531 L 51.605469 39.9375 L 45.945312 39.9375 Z M 45.945312 11.644531" clip-rule="nonzero"></path></clipPath><clipPath id="69aa424a50"><path d="M 0.945312 0.644531 L 6.605469 0.644531 L 6.605469 28.9375 L 0.945312 28.9375 Z M 0.945312 0.644531" clip-rule="nonzero"></path></clipPath><clipPath id="a2505f0df9"><rect x="0" width="7" y="0" height="29"></rect></clipPath><clipPath id="dd6f4cbb54"><path d="M 11.996094 45.59375 L 51.605469 45.59375 L 51.605469 51.253906 L 11.996094 51.253906 Z M 11.996094 45.59375" clip-rule="nonzero"></path></clipPath><clipPath id="66dd526e87"><path d="M 0.996094 0.59375 L 40.605469 0.59375 L 40.605469 6.253906 L 0.996094 6.253906 Z M 0.996094 0.59375" clip-rule="nonzero"></path></clipPath><clipPath id="1e411f664f"><rect x="0" width="41" y="0" height="7"></rect></clipPath><clipPath id="dd8693f09a"><path d="M 11.996094 11.644531 L 17.65625 11.644531 L 17.65625 51.253906 L 11.996094 51.253906 Z M 11.996094 11.644531" clip-rule="nonzero"></path></clipPath><clipPath id="1d4dcbdaec"><path d="M 0.996094 0.644531 L 6.65625 0.644531 L 6.65625 40.253906 L 0.996094 40.253906 Z M 0.996094 0.644531" clip-rule="nonzero"></path></clipPath><clipPath id="b295d0890b"><rect x="0" width="7" y="0" height="41"></rect></clipPath><clipPath id="1fa0b33840"><path d="M 11.996094 11.644531 L 51.605469 11.644531 L 51.605469 17.304688 L 11.996094 17.304688 Z M 11.996094 11.644531" clip-rule="nonzero"></path></clipPath><clipPath id="3bf503eda6"><path d="M 0.996094 0.644531 L 40.605469 0.644531 L 40.605469 6.304688 L 0.996094 6.304688 Z M 0.996094 0.644531" clip-rule="nonzero"></path></clipPath><clipPath id="e489f37f14"><rect x="0" width="41" y="0" height="7"></rect></clipPath><clipPath id="a3d9ad280e"><path d="M 23.3125 34.277344 L 51.605469 34.277344 L 51.605469 39.9375 L 23.3125 39.9375 Z M 23.3125 34.277344" clip-rule="nonzero"></path></clipPath><clipPath id="d46e7e4b3f"><path d="M 0.3125 0.277344 L 28.605469 0.277344 L 28.605469 5.9375 L 0.3125 5.9375 Z M 0.3125 0.277344" clip-rule="nonzero"></path></clipPath><clipPath id="f661782fd7"><rect x="0" width="29" y="0" height="6"></rect></clipPath><clipPath id="d9b644b479"><path d="M 23.3125 22.960938 L 28.972656 22.960938 L 28.972656 39.9375 L 23.3125 39.9375 Z M 23.3125 22.960938" clip-rule="nonzero"></path></clipPath><clipPath id="ff21b67087"><path d="M 0.3125 0.960938 L 5.972656 0.960938 L 5.972656 17.9375 L 0.3125 17.9375 Z M 0.3125 0.960938" clip-rule="nonzero"></path></clipPath><clipPath id="28ae3003f4"><rect x="0" width="6" y="0" height="18"></rect></clipPath><clipPath id="dedbdf1d5a"><path d="M 23.3125 22.960938 L 40.289062 22.960938 L 40.289062 28.621094 L 23.3125 28.621094 Z M 23.3125 22.960938" clip-rule="nonzero"></path></clipPath><clipPath id="a06a4760a5"><path d="M 0.3125 0.960938 L 17.289062 0.960938 L 17.289062 6.621094 L 0.3125 6.621094 Z M 0.3125 0.960938" clip-rule="nonzero"></path></clipPath><clipPath id="09e7da26a3"><rect x="0" width="18" y="0" height="7"></rect></clipPath><clipPath id="3a4da2f908"><rect x="0" width="319" y="0" height="63"></rect></clipPath></defs><g clip-path="url(#3c37b173f8)"><g transform="matrix(1, 0, 0, 1, 1, -0.000000000000000407)"><g clip-path="url(#3a4da2f908)"><g clip-path="url(#b22f114e2a)"><g transform="matrix(1, 0, 0, 1, 74, -0.000000000000000407)"><g clip-path="url(#4a7197e5e3)"><g fill="#ffffff" fill-opacity="1"><g transform="translate(1.128222, 49.002379)"><g><path d="M 16.6875 -36.03125 C 20.476562 -36.03125 23.796875 -35.273438 26.640625 -33.765625 C 29.484375 -32.265625 31.679688 -30.15625 33.234375 -27.4375 C 34.796875 -24.71875 35.578125 -21.578125 35.578125 -18.015625 C 35.578125 -14.492188 34.796875 -11.363281 33.234375 -8.625 C 31.679688 -5.882812 29.472656 -3.757812 26.609375 -2.25 C 23.753906 -0.75 20.445312 0 16.6875 0 L 3.1875 0 L 3.1875 -36.03125 Z M 16.109375 -7.59375 C 19.429688 -7.59375 22.015625 -8.5 23.859375 -10.3125 C 25.710938 -12.125 26.640625 -14.691406 26.640625 -18.015625 C 26.640625 -21.335938 25.710938 -23.921875 23.859375 -25.765625 C 22.015625 -27.609375 19.429688 -28.53125 16.109375 -28.53125 L 11.953125 -28.53125 L 11.953125 -7.59375 Z M 16.109375 -7.59375"></path></g></g></g><g fill="#ffffff" fill-opacity="1"><g transform="translate(38.445241, 49.002379)"><g><path d="M 25.609375 -6.359375 L 12.171875 -6.359375 L 10.015625 0 L 0.828125 0 L 13.859375 -36.03125 L 24.015625 -36.03125 L 37.0625 0 L 27.765625 0 Z M 23.359375 -13.140625 L 18.890625 -26.328125 L 14.46875 -13.140625 Z M 23.359375 -13.140625"></path></g></g></g><g fill="#ffffff" fill-opacity="1"><g transform="translate(76.275556, 49.002379)"><g><path d="M 11.953125 -29 L 11.953125 -21.71875 L 23.71875 -21.71875 L 23.71875 -14.9375 L 11.953125 -14.9375 L 11.953125 -7.03125 L 25.25 -7.03125 L 25.25 0 L 3.1875 0 L 3.1875 -36.03125 L 25.25 -36.03125 L 25.25 -29 Z M 11.953125 -29"></path></g></g></g><g fill="#ffffff" fill-opacity="1"><g transform="translate(104.045164, 49.002379)"><g><path d="M 16.6875 -36.03125 C 20.476562 -36.03125 23.796875 -35.273438 26.640625 -33.765625 C 29.484375 -32.265625 31.679688 -30.15625 33.234375 -27.4375 C 34.796875 -24.71875 35.578125 -21.578125 35.578125 -18.015625 C 35.578125 -14.492188 34.796875 -11.363281 33.234375 -8.625 C 31.679688 -5.882812 29.472656 -3.757812 26.609375 -2.25 C 23.753906 -0.75 20.445312 0 16.6875 0 L 3.1875 0 L 3.1875 -36.03125 Z M 16.109375 -7.59375 C 19.429688 -7.59375 22.015625 -8.5 23.859375 -10.3125 C 25.710938 -12.125 26.640625 -14.691406 26.640625 -18.015625 C 26.640625 -21.335938 25.710938 -23.921875 23.859375 -25.765625 C 22.015625 -27.609375 19.429688 -28.53125 16.109375 -28.53125 L 11.953125 -28.53125 L 11.953125 -7.59375 Z M 16.109375 -7.59375"></path></g></g></g><g fill="#ffffff" fill-opacity="1"><g transform="translate(141.362182, 49.002379)"><g><path d="M 25.609375 -6.359375 L 12.171875 -6.359375 L 10.015625 0 L 0.828125 0 L 13.859375 -36.03125 L 24.015625 -36.03125 L 37.0625 0 L 27.765625 0 Z M 23.359375 -13.140625 L 18.890625 -26.328125 L 14.46875 -13.140625 Z M 23.359375 -13.140625"></path></g></g></g><g fill="#ffffff" fill-opacity="1"><g transform="translate(179.192498, 49.002379)"><g><path d="M 11.953125 -6.78125 L 23.453125 -6.78125 L 23.453125 0 L 3.1875 0 L 3.1875 -36.03125 L 11.953125 -36.03125 Z M 11.953125 -6.78125"></path></g></g></g><g fill="#ffffff" fill-opacity="1"><g transform="translate(203.676976, 49.002379)"><g><path d="M 20.21875 0.359375 C 16.832031 0.359375 13.726562 -0.425781 10.90625 -2 C 8.082031 -3.570312 5.835938 -5.769531 4.171875 -8.59375 C 2.515625 -11.414062 1.6875 -14.59375 1.6875 -18.125 C 1.6875 -21.644531 2.515625 -24.804688 4.171875 -27.609375 C 5.835938 -30.421875 8.082031 -32.613281 10.90625 -34.1875 C 13.726562 -35.757812 16.832031 -36.546875 20.21875 -36.546875 C 23.613281 -36.546875 26.722656 -35.757812 29.546875 -34.1875 C 32.367188 -32.613281 34.59375 -30.421875 36.21875 -27.609375 C 37.84375 -24.804688 38.65625 -21.644531 38.65625 -18.125 C 38.65625 -14.59375 37.832031 -11.414062 36.1875 -8.59375 C 34.539062 -5.769531 32.316406 -3.570312 29.515625 -2 C 26.710938 -0.425781 23.613281 0.359375 20.21875 0.359375 Z M 20.21875 -7.640625 C 23.09375 -7.640625 25.394531 -8.597656 27.125 -10.515625 C 28.851562 -12.429688 29.71875 -14.96875 29.71875 -18.125 C 29.71875 -21.300781 28.851562 -23.835938 27.125 -25.734375 C 25.394531 -27.640625 23.09375 -28.59375 20.21875 -28.59375 C 17.3125 -28.59375 14.992188 -27.648438 13.265625 -25.765625 C 11.535156 -23.878906 10.671875 -21.332031 10.671875 -18.125 C 10.671875 -14.9375 11.535156 -12.390625 13.265625 -10.484375 C 14.992188 -8.585938 17.3125 -7.640625 20.21875 -7.640625 Z M 20.21875 -7.640625"></path></g></g></g></g></g></g><g clip-path="url(#c310a3b73a)"><g transform="matrix(1, 0, 0, 1, 0, 56)"><g clip-path="url(#0f4fa8ffe2)"><g clip-path="url(#01b5e73766)"><path fill="#fdcb6e" d="M 0.679688 0.910156 L 62.921875 0.910156 L 62.921875 6.570312 L 0.679688 6.570312 Z M 0.679688 0.910156" fill-opacity="1" fill-rule="nonzero"></path></g></g></g></g><g clip-path="url(#eef679bd18)"><g transform="matrix(1, 0, 0, 1, 0, -0.000000000000000416)"><g clip-path="url(#983d632c1c)"><g clip-path="url(#da2b8a5ba2)"><path fill="#fdcb6e" d="M 0.679688 0.328125 L 62.921875 0.328125 L 62.921875 5.988281 L 0.679688 5.988281 Z M 0.679688 0.328125" fill-opacity="1" fill-rule="nonzero"></path></g></g></g></g><g clip-path="url(#ef433cf04b)"><g transform="matrix(1, 0, 0, 1, 0, -0.000000000000000416)"><g clip-path="url(#bc1c905700)"><g clip-path="url(#7699de034b)"><path fill="#fdcb6e" d="M 6.339844 0.328125 L 6.339844 62.570312 L 0.679688 62.570312 L 0.679688 0.328125 Z M 6.339844 0.328125" fill-opacity="1" fill-rule="nonzero"></path></g></g></g></g><g clip-path="url(#27eeb374ae)"><g transform="matrix(1, 0, 0, 1, 57, -0.000000000000000416)"><g clip-path="url(#2e99f834fa)"><g clip-path="url(#e07d53c1f1)"><path fill="#fdcb6e" d="M 5.921875 0.328125 L 5.921875 62.570312 L 0.261719 62.570312 L 0.261719 0.328125 Z M 5.921875 0.328125" fill-opacity="1" fill-rule="nonzero"></path></g></g></g></g><g clip-path="url(#8ca1e9bd57)"><g transform="matrix(1, 0, 0, 1, 45, 11)"><g clip-path="url(#a2505f0df9)"><g clip-path="url(#69aa424a50)"><path fill="#fdcb6e" d="M 0.945312 28.9375 L 0.945312 0.644531 L 6.605469 0.644531 L 6.605469 28.9375 Z M 0.945312 28.9375" fill-opacity="1" fill-rule="nonzero"></path></g></g></g></g><g clip-path="url(#dd6f4cbb54)"><g transform="matrix(1, 0, 0, 1, 11, 45)"><g clip-path="url(#1e411f664f)"><g clip-path="url(#66dd526e87)"><path fill="#fdcb6e" d="M 0.996094 0.59375 L 40.605469 0.59375 L 40.605469 6.253906 L 0.996094 6.253906 Z M 0.996094 0.59375" fill-opacity="1" fill-rule="nonzero"></path></g></g></g></g><g clip-path="url(#dd8693f09a)"><g transform="matrix(1, 0, 0, 1, 11, 11)"><g clip-path="url(#b295d0890b)"><g clip-path="url(#1d4dcbdaec)"><path fill="#fdcb6e" d="M 0.996094 40.253906 L 0.996094 0.644531 L 6.65625 0.644531 L 6.65625 40.253906 Z M 0.996094 40.253906" fill-opacity="1" fill-rule="nonzero"></path></g></g></g></g><g clip-path="url(#1fa0b33840)"><g transform="matrix(1, 0, 0, 1, 11, 11)"><g clip-path="url(#e489f37f14)"><g clip-path="url(#3bf503eda6)"><path fill="#fdcb6e" d="M 0.996094 0.644531 L 40.605469 0.644531 L 40.605469 6.304688 L 0.996094 6.304688 Z M 0.996094 0.644531" fill-opacity="1" fill-rule="nonzero"></path></g></g></g></g><g clip-path="url(#a3d9ad280e)"><g transform="matrix(1, 0, 0, 1, 23, 34)"><g clip-path="url(#f661782fd7)"><g clip-path="url(#d46e7e4b3f)"><path fill="#fdcb6e" d="M 0.3125 0.277344 L 28.605469 0.277344 L 28.605469 5.9375 L 0.3125 5.9375 Z M 0.3125 0.277344" fill-opacity="1" fill-rule="nonzero"></path></g></g></g></g><g clip-path="url(#d9b644b479)"><g transform="matrix(1, 0, 0, 1, 23, 22)"><g clip-path="url(#28ae3003f4)"><g clip-path="url(#ff21b67087)"><path fill="#fdcb6e" d="M 5.972656 0.960938 L 5.972656 17.9375 L 0.3125 17.9375 L 0.3125 0.960938 Z M 5.972656 0.960938" fill-opacity="1" fill-rule="nonzero"></path></g></g></g></g><g clip-path="url(#dedbdf1d5a)"><g transform="matrix(1, 0, 0, 1, 23, 22)"><g clip-path="url(#09e7da26a3)"><g clip-path="url(#a06a4760a5)"><path fill="#fdcb6e" d="M 0.3125 0.960938 L 17.289062 0.960938 L 17.289062 6.621094 L 0.3125 6.621094 Z M 0.3125 0.960938" fill-opacity="1" fill-rule="nonzero"></path></g></g></g></g></g></g></g></svg>